<svg id="fc27aa3b-86bf-41cd-8492-a8f9fef93155" data-name="ed54ab70-90aa-49fd-aa38-236740092461" xmlns="http://www.w3.org/2000/svg" viewBox="0 0 1920 634.09">
  <polygon points="0 0 1920 0 1920 634.09 1920 634.09 0 634.09 0 0" style="fill: #2a377e"/>
  <g>
    <g>
      <polygon points="606.87 335.13 598.74 330.43 598.74 330.43 572.29 315.16 572.29 335.91 523.93 335.91 523.93 287.55 544.68 287.55 529.4 261.1 529.4 261.1 524.71 252.96 524.71 252.96 511.78 230.57 478.88 287.55 499.63 287.55 499.63 290.87 499.63 335.91 499.63 348.06 499.63 360.21 511.78 360.21 523.93 360.21 572.29 360.21 572.29 380.95 629.27 348.06 606.87 335.13 606.87 335.13" style="fill: #fff"/>
      <path d="M523.1,629.09a16,16,0,0,1-22.63,0l0,0-46.68-46.7a16,16,0,0,1,0-22.63l0,0,36.8-36.8v-3.31h-9.51l-33.7,33.7a25.08,25.08,0,0,0,0,35.47h0L494,635.49a25.14,25.14,0,0,0,35.48,0l33.71-33.71v-9.51H559.9Z" transform="translate(0 -223)" style="fill: #fff"/>
      <path d="M638.13,491.39l-46.69-46.68a25.08,25.08,0,0,0-35.47,0h0l-24.61,24.61,4.69,8.13,26.34-26.36a16,16,0,0,1,22.62,0l46.68,46.68a16,16,0,0,1,0,22.63l0,0-26.3,26.36,8.13,4.69,24.62-24.61A25.12,25.12,0,0,0,638.13,491.39Z" transform="translate(0 -223)" style="fill: #fff"/>
    </g>
    <g>
      <path d="M772.11,557.32q0-8.1-5.69-12.82t-20.81-9q-15.14-4.25-22.09-9.27-9.91-7.1-9.91-18.61,0-11.17,9.21-18.17t23.52-7a39,39,0,0,1,17.37,3.75,28.31,28.31,0,0,1,11.88,10.44,27.41,27.41,0,0,1,4.22,14.92h-8.3q0-10-6.83-16.08t-18.34-6.07q-11.18,0-17.8,5a15.59,15.59,0,0,0-6.63,13,14.77,14.77,0,0,0,6,12.14q6,4.69,19.07,8.28t19.88,7.43a28.47,28.47,0,0,1,10.18,9.2,23.11,23.11,0,0,1,3.41,12.65,22,22,0,0,1-9.2,18.48q-9.21,7-24.27,7a47.66,47.66,0,0,1-18.9-3.68A29,29,0,0,1,715,568.63a26.63,26.63,0,0,1-4.45-15.19h8.24q0,10.3,7.69,16.26t20.48,6q11.38,0,18.28-5A15.72,15.72,0,0,0,772.11,557.32Z" transform="translate(0 -223)" style="fill: #fff"/>
      <path d="M803.57,508.86l.27,11.78a26.83,26.83,0,0,1,10-9.84,27.53,27.53,0,0,1,13.39-3.28q17.13,0,21.75,14.06a27.08,27.08,0,0,1,10.37-10.41,28.86,28.86,0,0,1,14.33-3.65q23.3,0,23.76,25.43v48.33h-8V533.56q-.08-9.7-4.19-14.39t-13.42-4.69a21.33,21.33,0,0,0-14.58,5.61,19.8,19.8,0,0,0-6.63,13.29V581.3h-8V533q-.06-9.3-4.38-13.88T825,514.48a20.2,20.2,0,0,0-13,4.32q-5.43,4.32-8,12.82v49.66h-8V508.86Z" transform="translate(0 -223)" style="fill: #fff"/>
      <path d="M963.47,581.28a38.51,38.51,0,0,1-1.54-10.11,27.89,27.89,0,0,1-10.74,8.47,32.78,32.78,0,0,1-13.82,3q-10.44,0-16.9-5.82A19,19,0,0,1,914,562.09a19.37,19.37,0,0,1,8.8-16.73q8.81-6.17,24.53-6.16h14.53V531q0-7.77-4.79-12.22t-14-4.45q-8.37,0-13.86,4.28t-5.49,10.31l-8-.07q0-8.62,8-15t19.75-6.33q12.1,0,19.11,6.06t7.19,16.9v34.27q0,10.5,2.21,15.73v.8Zm-25.16-5.76a26.86,26.86,0,0,0,14.35-3.88,22.84,22.84,0,0,0,9.21-10.37V545.34H947.54q-12,.13-18.74,4.38T922,561.4a13,13,0,0,0,4.52,10.11Q931.08,575.53,938.31,575.52Z" transform="translate(0 -223)" style="fill: #fff"/>
      <path d="M1024.65,515.69a29,29,0,0,0-5.42-.47,19.51,19.51,0,0,0-12.68,4.18q-5.19,4.19-7.4,12.15v49.73h-8V508.86H999l.13,11.51q6.36-12.86,20.41-12.85a13.09,13.09,0,0,1,5.29.87Z" transform="translate(0 -223)" style="fill: #fff"/>
      <path d="M1053.1,490.32v18.54h15v6.56h-15v48.31q0,6,2.17,9t7.27,3a48.72,48.72,0,0,0,6.49-.67l.33,6.5a26.1,26.1,0,0,1-8.56,1.13q-8.23,0-12-4.79t-3.74-14.09V515.42h-13.32v-6.56h13.32V490.32Z" transform="translate(0 -223)" style="fill: #fff"/>
      <path d="M1097.48,483.83l35.94,86,36.08-86h11v97.45h-8.23V538.84l.67-43.5-36.28,85.94h-6.36l-36.14-85.61.67,42.91v42.7h-8.23V483.83Z" transform="translate(0 -223)" style="fill: #fff"/>
      <path d="M1198.88,544a42.56,42.56,0,0,1,4-18.81,30.42,30.42,0,0,1,28.21-17.67q14.46,0,23.43,10.14t9,26.87v1.68a43,43,0,0,1-4,18.91,30.33,30.33,0,0,1-11.41,13,31.36,31.36,0,0,1-16.8,4.55q-14.4,0-23.4-10.14t-9-26.87Zm8,2.21q0,13,6.73,21.32a22.77,22.77,0,0,0,32.05,3.16,22.47,22.47,0,0,0,3.16-3.16q6.72-8.34,6.72-22V544a36.63,36.63,0,0,0-3.08-15.2,24.74,24.74,0,0,0-8.63-10.67,22,22,0,0,0-12.72-3.78,21.39,21.39,0,0,0-17.47,8.4q-6.77,8.4-6.76,22Z" transform="translate(0 -223)" style="fill: #fff"/>
      <path d="M1326.66,572.09q-7.23,10.51-23.1,10.51-11.58,0-17.6-6.73T1279.8,556v-47.1h8V555q0,20.67,16.73,20.68,17.4,0,22-14.39V508.86h8v72.42h-7.76Z" transform="translate(0 -223)" style="fill: #fff"/>
      <path d="M1398.74,562.87a11.42,11.42,0,0,0-4.78-9.57q-4.79-3.62-14.43-5.65a65.15,65.15,0,0,1-15-4.69,19.85,19.85,0,0,1-7.89-6.46,16,16,0,0,1-2.58-9.23,17.23,17.23,0,0,1,7.16-14.16q7.15-5.58,18.34-5.59,12.12,0,19.44,6a19.2,19.2,0,0,1,7.33,15.63h-8a13,13,0,0,0-5.32-10.58q-5.33-4.22-13.42-4.21-7.9,0-12.68,3.51a10.83,10.83,0,0,0-4.79,9.14,9.89,9.89,0,0,0,4,8.4q4,3,14.53,5.45t15.79,5.29a20.37,20.37,0,0,1,7.8,6.76,18.57,18.57,0,0,1-4.85,24.23q-7.4,5.49-19.31,5.49-12.64,0-20.52-6.13T1351.7,561h8a13.92,13.92,0,0,0,5.92,10.94q5.46,3.91,14.43,3.92,8.37,0,13.52-3.68T1398.74,562.87Z" transform="translate(0 -223)" style="fill: #fff"/>
      <path d="M1452.83,582.62a31.49,31.49,0,0,1-16.7-4.55,31.05,31.05,0,0,1-11.62-12.69,39.65,39.65,0,0,1-4.15-18.24v-2.87a42.58,42.58,0,0,1,4.05-18.81,32.23,32.23,0,0,1,11.28-13.15,27.84,27.84,0,0,1,15.66-4.79q13.19,0,20.92,9t7.73,24.57v4.49h-51.67v1.53q0,12.33,7.06,20.52a22.43,22.43,0,0,0,17.77,8.2,26.12,26.12,0,0,0,11.35-2.34,25.29,25.29,0,0,0,8.93-7.5l5,3.82Q1469.63,582.62,1452.83,582.62Zm-1.48-68.27a20,20,0,0,0-15.22,6.62q-6.2,6.63-7.54,17.81H1472v-.87q-.33-10.44-6-17A18.46,18.46,0,0,0,1451.35,514.35Z" transform="translate(0 -223)" style="fill: #fff"/>
    </g>
  </g>
</svg>
