<svg xmlns="http://www.w3.org/2000/svg" viewBox="0 0 362.45 362.45">
  <g id="f108ffe1-4d2e-4253-8b68-6591e07bb1e3" data-name="Layer 1">
    <g>
      <polygon points="294.38 213.04 280.03 204.76 280.03 204.76 233.37 177.82 233.37 214.42 148.05 214.42 148.05 129.11 184.66 129.11 157.72 82.44 157.72 82.44 149.43 68.1 149.43 68.1 126.63 28.59 68.59 129.11 105.2 129.11 105.2 134.96 105.2 214.42 105.2 235.85 105.2 257.28 126.63 257.28 148.05 257.28 233.37 257.28 233.37 293.88 333.88 235.85 294.38 213.04 294.38 213.04" style="fill: #fff"/>
      <path d="M221.36,413a28.26,28.26,0,0,1-40,0L99,330.61a28.26,28.26,0,0,1,0-40L164,225.72v-5.85H147.19L87.73,279.33a44.24,44.24,0,0,0,0,62.59l82.35,82.35a44.29,44.29,0,0,0,62.59,0l59.46-59.46V348h-5.85Z" transform="translate(-74.76 -74.76)" style="fill: #fff"/>
      <path d="M424.27,170.08,341.92,87.73a44.24,44.24,0,0,0-62.59,0l-43.42,43.42,8.28,14.34L290.64,99a28.26,28.26,0,0,1,40,0L413,181.39a28.26,28.26,0,0,1,0,40l-46.45,46.45,14.34,8.28,43.42-43.42A44.3,44.3,0,0,0,424.27,170.08Z" transform="translate(-74.76 -74.76)" style="fill: #fff"/>
    </g>
  </g>
</svg>
