<?xml version="1.0" encoding="UTF-8" standalone="no"?>
<svg
   id="a66b6df2-260f-4f0d-8bb0-8f9241704769"
   data-name="Layer 1"
   viewBox="0 0 443 140"
   version="1.1"
   width="443"
   height="140"
   xmlns="http://www.w3.org/2000/svg"
   xmlns:svg="http://www.w3.org/2000/svg">
  <defs
     id="defs145" />
  <g
     id="g10472"
     transform="translate(3.862379,1.6185724)"
     style="fill:#1f2328;fill-opacity:1">
    <g
       id="g118"
       style="fill:#1f2328;fill-opacity:1"
       transform="matrix(0.27563962,0,0,0.27563962,13.321191,10.360546)">
      <polygon
         points="189.24,265.07 250.46,265.07 250.46,291.34 322.58,249.69 294.24,233.33 283.94,227.39 250.46,208.05 250.46,234.32 189.24,234.32 189.24,173.1 215.5,173.1 196.17,139.62 190.23,129.32 173.86,100.97 132.22,173.1 158.49,173.1 158.49,177.3 158.49,234.32 158.49,249.69 158.49,265.07 173.86,265.07 "
         style="fill:#1f2328;fill-opacity:1"
         id="polygon112" />
      <path
         d="m 188.19,323 a 20.28,20.28 0 0 1 -28.68,0 l -59.09,-59 a 20.28,20.28 0 0 1 0,-28.68 L 147,188.69 v -4.2 h -12 l -42.7,42.66 a 31.77,31.77 0 0 0 0,44.92 l 59.1,59.09 a 31.78,31.78 0 0 0 44.91,0 L 239,288.49 v -12 h -4.2 z"
         transform="translate(0,0.09)"
         style="fill:#1f2328;fill-opacity:1"
         id="path114" />
      <path
         d="m 333.8,148.76 -59.09,-59.1 a 31.77,31.77 0 0 0 -44.92,0 l -31.16,31.16 6,10.3 33.33,-33.34 a 20.28,20.28 0 0 1 28.68,0 l 59.09,59.1 a 20.27,20.27 0 0 1 0,28.67 l -33.33,33.34 10.29,5.94 31.16,-31.16 a 31.8,31.8 0 0 0 -0.05,-44.91 z"
         transform="translate(0,0.09)"
         style="fill:#1f2328;fill-opacity:1"
         id="path116" />
    </g>
    <g
       id="g140"
       style="fill:#1f2328;fill-opacity:1"
       transform="matrix(0.27563962,0,0,0.27563962,13.321191,10.360546)">
      <path
         d="m 503.41,232.21 q 0,-10.25 -7.21,-16.22 -7.21,-5.97 -26.35,-11.35 -19.14,-5.38 -28,-11.74 -12.54,-9 -12.54,-23.55 0,-14.16 11.65,-23 11.65,-8.84 29.79,-8.85 a 49.45,49.45 0 0 1 22,4.74 36,36 0 0 1 15,13.22 34.73,34.73 0 0 1 5.34,18.9 h -10.45 q 0,-12.67 -8.64,-20.36 -8.64,-7.69 -23.21,-7.69 -14.16,0 -22.54,6.32 a 19.75,19.75 0 0 0 -8.39,16.51 18.66,18.66 0 0 0 7.54,15.36 q 7.55,5.94 24.15,10.48 16.6,4.54 25.16,9.41 a 35.83,35.83 0 0 1 12.88,11.61 29.16,29.16 0 0 1 4.32,16 27.87,27.87 0 0 1 -11.65,23.39 q -11.65,8.82 -30.71,8.81 a 60.17,60.17 0 0 1 -23.94,-4.66 q -10.89,-4.65 -16.52,-13 a 33.64,33.64 0 0 1 -5.63,-19.23 h 10.42 q 0,13 9.74,20.59 9.74,7.59 25.93,7.54 14.4,0 23.13,-6.35 a 19.88,19.88 0 0 0 8.73,-16.88 z"
         transform="translate(0,0.09)"
         style="fill:#1f2328;fill-opacity:1"
         id="path120" />
      <path
         d="m 543.23,170.87 0.34,14.91 a 33.94,33.94 0 0 1 12.71,-12.45 34.81,34.81 0 0 1 16.94,-4.15 q 21.69,0 27.54,17.79 a 34.42,34.42 0 0 1 13.13,-13.18 36.45,36.45 0 0 1 18.11,-4.61 q 29.49,0 30.08,32.19 v 61.18 h -10.15 v -60.41 q -0.07,-12.28 -5.29,-18.22 -5.22,-5.94 -17,-5.93 a 27,27 0 0 0 -18.47,7.07 25,25 0 0 0 -8.39,16.82 v 60.67 h -10.16 v -61.18 q -0.07,-11.77 -5.55,-17.58 -5.48,-5.81 -16.81,-5.79 a 25.57,25.57 0 0 0 -16.44,5.46 q -6.87,5.48 -10.17,16.23 v 62.87 h -10.17 v -91.69 z"
         transform="translate(0,0.09)"
         style="fill:#1f2328;fill-opacity:1"
         id="path122" />
      <path
         d="m 745.64,262.55 q -1.51,-4.32 -1.95,-12.8 a 35.25,35.25 0 0 1 -13.6,10.72 41.67,41.67 0 0 1 -17.49,3.77 q -13.22,0 -21.39,-7.37 A 24,24 0 0 1 683,238.23 q 0,-13.38 11.14,-21.18 11.14,-7.8 31.05,-7.8 h 18.39 v -10.42 q 0,-9.83 -6.06,-15.46 -6.06,-5.63 -17.67,-5.64 -10.59,0 -17.53,5.43 -6.94,5.43 -7,13.05 l -10.17,-0.09 q 0,-10.94 10.17,-18.94 10.17,-8 25,-8 15.35,0 24.19,7.66 8.84,7.66 9.11,21.4 v 43.38 q 0,13.31 2.8,19.91 v 1 z m -31.85,-7.29 a 34.1,34.1 0 0 0 18.21,-4.91 28.94,28.94 0 0 0 11.65,-13.14 v -20.16 h -18.17 q -15.16,0.16 -23.73,5.55 -8.57,5.39 -8.55,14.78 a 16.38,16.38 0 0 0 5.72,12.8 q 5.72,5.09 14.87,5.08 z"
         transform="translate(0,0.09)"
         style="fill:#1f2328;fill-opacity:1"
         id="path124" />
      <path
         d="m 823.08,179.51 a 38.27,38.27 0 0 0 -6.86,-0.59 24.73,24.73 0 0 0 -16.05,5.3 q -6.57,5.29 -9.37,15.37 v 63 h -10.08 v -91.72 h 9.91 l 0.17,14.57 q 8.06,-16.26 25.84,-16.26 a 16.6,16.6 0 0 1 6.7,1.1 z"
         transform="translate(0,0.09)"
         style="fill:#1f2328;fill-opacity:1"
         id="path126" />
      <path
         d="m 859.09,147.4 v 23.47 h 19 v 8.3 h -19 v 61.16 q 0,7.63 2.76,11.37 2.76,3.74 9.19,3.73 a 62.47,62.47 0 0 0 8.22,-0.85 l 0.42,8.23 a 33.14,33.14 0 0 1 -10.84,1.43 q -10.43,0 -15.17,-6.06 -4.74,-6.06 -4.74,-17.83 v -61.18 h -16.86 v -8.3 h 16.86 V 147.4 Z"
         transform="translate(0,0.09)"
         style="fill:#1f2328;fill-opacity:1"
         id="path128" />
      <path
         d="m 915.27,139.18 45.5,108.88 45.67,-108.88 h 13.89 v 123.37 h -10.42 v -53.72 l 0.85,-55.07 -45.93,108.79 h -8.05 L 911,154.18 l 0.85,54.31 v 54.06 H 901.46 V 139.18 Z"
         transform="translate(0,0.09)"
         style="fill:#1f2328;fill-opacity:1"
         id="path130" />
      <path
         d="m 1043.63,215.35 a 54,54 0 0 1 5.13,-23.81 38.53,38.53 0 0 1 35.71,-22.36 q 18.3,0 29.65,12.83 11.35,12.83 11.36,34 v 2.12 a 54.33,54.33 0 0 1 -5.13,23.93 38.3,38.3 0 0 1 -14.44,16.4 39.66,39.66 0 0 1 -21.27,5.76 q -18.23,0 -29.61,-12.83 -11.38,-12.83 -11.4,-34 z m 10.17,2.8 q 0,16.44 8.51,27 a 28.83,28.83 0 0 0 44.57,0 q 8.52,-10.56 8.52,-27.84 v -2 a 46.61,46.61 0 0 0 -3.9,-19.23 31.28,31.28 0 0 0 -10.93,-13.51 28,28 0 0 0 -16.1,-4.79 27.07,27.07 0 0 0 -22.11,10.63 q -8.56,10.63 -8.56,27.84 z"
         transform="translate(0,0.09)"
         style="fill:#1f2328;fill-opacity:1"
         id="path132" />
      <path
         d="m 1205.38,250.94 q -9.15,13.31 -29.23,13.3 -14.67,0 -22.29,-8.51 -7.62,-8.51 -7.79,-25.21 v -59.65 h 10.08 v 58.38 q 0,26.17 21.18,26.18 22,0 27.88,-18.22 v -66.34 h 10.17 v 91.68 h -9.83 z"
         transform="translate(0,0.09)"
         style="fill:#1f2328;fill-opacity:1"
         id="path134" />
      <path
         d="m 1296.63,239.25 a 14.45,14.45 0 0 0 -6.06,-12.12 q -6.06,-4.57 -18.26,-7.16 -12.2,-2.59 -18.93,-5.97 a 25.13,25.13 0 0 1 -10,-8.18 20.34,20.34 0 0 1 -3.26,-11.69 q 0,-10.84 9.06,-17.92 9.06,-7.08 23.22,-7.07 15.33,0 24.61,7.58 a 24.33,24.33 0 0 1 9.28,19.78 h -10.17 q 0,-8 -6.74,-13.38 -6.74,-5.38 -17,-5.34 -10,0 -16.06,4.45 a 13.71,13.71 0 0 0 -6.06,11.56 12.52,12.52 0 0 0 5,10.64 q 5,3.76 18.39,6.9 13.39,3.14 20,6.69 a 26,26 0 0 1 9.87,8.56 23.52,23.52 0 0 1 -6.15,30.67 q -9.36,7 -24.44,6.95 -16,0 -26,-7.75 -10,-7.75 -10,-19.62 h 10.16 a 17.66,17.66 0 0 0 7.5,13.86 q 6.9,5 18.26,5 10.59,0 17.12,-4.66 6.53,-4.66 6.66,-11.78 z"
         transform="translate(0,0.09)"
         style="fill:#1f2328;fill-opacity:1"
         id="path136" />
      <path
         d="m 1365.09,264.24 a 39.8,39.8 0 0 1 -21.14,-5.76 39.2,39.2 0 0 1 -14.7,-16.06 50,50 0 0 1 -5.25,-23.08 v -3.65 a 54,54 0 0 1 5.12,-23.81 40.83,40.83 0 0 1 14.28,-16.65 35.27,35.27 0 0 1 19.82,-6 q 16.69,0 26.48,11.39 9.79,11.39 9.79,31.14 v 5.68 h -65.41 v 2 q 0,15.58 8.94,26 a 28.42,28.42 0 0 0 22.49,10.38 33,33 0 0 0 14.36,-3 31.73,31.73 0 0 0 11.31,-9.49 l 6.36,4.83 q -11.19,16.09 -32.45,16.08 z m -1.87,-86.42 a 25.31,25.31 0 0 0 -19.27,8.39 q -7.85,8.39 -9.53,22.53 h 55 v -1.1 q -0.44,-13.21 -7.54,-21.52 -7.1,-8.31 -18.66,-8.3 z"
         transform="translate(0,0.09)"
         style="fill:#1f2328;fill-opacity:1"
         id="path138" />
    </g>
  </g>
</svg>
